<svg width="316" height="73" viewBox="0 0 316 73" fill="none" xmlns="http://www.w3.org/2000/svg">
<path d="M19.4239 57.0909L15.4821 68H14.502L10.5603 57.0909H11.4907L14.9566 66.8849H15.0276L18.4935 57.0909H19.4239ZM26.7743 68V57.0909H27.6336V68H26.7743ZM27.2075 55.1591C27.0181 55.1591 26.8524 55.0928 26.7103 54.9602C26.573 54.8277 26.5044 54.6667 26.5044 54.4773C26.5044 54.2879 26.573 54.1269 26.7103 53.9943C26.8476 53.8617 27.0134 53.7955 27.2075 53.7955C27.3969 53.7955 27.5602 53.8617 27.6975 53.9943C27.8396 54.1269 27.9106 54.2879 27.9106 54.4773C27.9106 54.6667 27.842 54.8277 27.7046 54.9602C27.5673 55.0928 27.4016 55.1591 27.2075 55.1591ZM36.7294 60.9261V68H35.8629V57.0909H36.7081V58.8168H36.7933C37.049 58.2533 37.4585 57.8011 38.022 57.4602C38.5854 57.1193 39.2554 56.9489 40.0319 56.9489C40.7658 56.9489 41.4098 57.1051 41.9637 57.4176C42.5225 57.7301 42.9581 58.1752 43.2706 58.7528C43.5878 59.3258 43.7464 60.0099 43.7464 60.8054V68H42.8799V60.8409C42.8799 59.9129 42.6029 59.1671 42.049 58.6037C41.4997 58.0355 40.7729 57.7514 39.8686 57.7514C39.2625 57.7514 38.7227 57.884 38.2493 58.1491C37.7758 58.4143 37.4041 58.786 37.1342 59.2642C36.8643 59.7377 36.7294 60.2917 36.7294 60.9261ZM55.8038 57.0909V57.8651H51.0382V57.0909H55.8038ZM52.6504 54.4773H53.5098V65.4219C53.5098 65.867 53.595 66.2315 53.7654 66.5156C53.9406 66.795 54.1679 67.0033 54.4473 67.1406C54.7314 67.2732 55.0344 67.3395 55.3564 67.3395C55.5126 67.3395 55.6475 67.3277 55.7612 67.304C55.8796 67.2803 55.9908 67.2495 56.095 67.2116L56.3081 68C56.1755 68.0473 56.0287 68.0876 55.8677 68.1207C55.7067 68.1586 55.5173 68.1776 55.2995 68.1776C54.845 68.1776 54.4141 68.0758 54.0069 67.8722C53.6045 67.6686 53.2778 67.3726 53.0268 66.9844C52.7759 66.5961 52.6504 66.1274 52.6504 65.5781V54.4773ZM66.5082 68.2344C65.8785 68.2344 65.3008 68.1089 64.7752 67.858C64.2544 67.607 63.8354 67.2401 63.5181 66.7571C63.2056 66.2741 63.0494 65.687 63.0494 64.9957C63.0494 64.5412 63.1299 64.1411 63.2909 63.7955C63.4519 63.4498 63.7004 63.1515 64.0366 62.9006C64.3728 62.6496 64.8037 62.4437 65.3292 62.2827C65.8548 62.117 66.4822 61.9891 67.2113 61.8991C67.7653 61.8329 68.2601 61.7689 68.6957 61.7074C69.1313 61.6411 69.4722 61.5393 69.7184 61.402C69.9694 61.2647 70.0948 61.0563 70.0948 60.777V60.3224C70.0948 59.527 69.8439 58.8949 69.342 58.4261C68.8401 57.9574 68.1488 57.723 67.2681 57.723C66.4869 57.723 65.8288 57.8958 65.2937 58.2415C64.7634 58.5824 64.3917 59.0227 64.1787 59.5625L63.3619 59.2571C63.5702 58.7363 63.8709 58.303 64.2639 57.9574C64.6616 57.6117 65.1162 57.3537 65.6275 57.1832C66.1436 57.0128 66.6834 56.9276 67.2468 56.9276C67.7345 56.9276 68.1985 56.9962 68.6389 57.1335C69.084 57.2708 69.4793 57.4792 69.825 57.7585C70.1753 58.0379 70.4523 58.3954 70.6559 58.831C70.8595 59.2618 70.9613 59.7779 70.9613 60.3793V68H70.0948V66.0327H70.0309C69.8415 66.4399 69.5811 66.8116 69.2497 67.1477C68.923 67.4792 68.5276 67.7443 68.0636 67.9432C67.6043 68.1373 67.0859 68.2344 66.5082 68.2344ZM66.5934 67.4318C67.2752 67.4318 67.8789 67.2661 68.4045 66.9347C68.9348 66.5985 69.3491 66.1392 69.6474 65.5568C69.9457 64.9744 70.0948 64.3139 70.0948 63.5753V61.9702C69.9859 62.0649 69.8273 62.1501 69.619 62.2259C69.4154 62.2969 69.1834 62.3608 68.923 62.4176C68.6673 62.4697 68.3974 62.517 68.1133 62.5597C67.834 62.5975 67.5617 62.633 67.2966 62.6662C66.5011 62.7609 65.8524 62.9077 65.3505 63.1065C64.8534 63.3007 64.4888 63.5563 64.2568 63.8736C64.0295 64.1908 63.9159 64.5743 63.9159 65.0241C63.9159 65.7675 64.1716 66.3546 64.6829 66.7855C65.1943 67.2164 65.8311 67.4318 66.5934 67.4318ZM83.1288 72.3182C82.4517 72.3182 81.8433 72.2282 81.3035 72.0483C80.7637 71.8731 80.3045 71.6222 79.9257 71.2955C79.5516 70.9688 79.2652 70.5805 79.0663 70.1307L79.7907 69.7045C79.9517 70.0549 80.1814 70.3674 80.4796 70.642C80.7779 70.9167 81.1473 71.1321 81.5876 71.2884C82.0327 71.4446 82.5464 71.5227 83.1288 71.5227C84.1799 71.5227 85.0109 71.2505 85.6217 70.706C86.2372 70.1662 86.545 69.3376 86.545 68.2202V65.5071H86.4598C86.294 65.9806 86.0478 66.402 85.7211 66.7713C85.3992 67.1359 85.0038 67.4223 84.535 67.6307C84.0663 67.839 83.5336 67.9432 82.937 67.9432C82.0753 67.9432 81.3177 67.7206 80.6643 67.2756C80.0109 66.8305 79.5019 66.2055 79.1373 65.4006C78.7727 64.5909 78.5904 63.6392 78.5904 62.5455C78.5904 61.4517 78.768 60.4834 79.1231 59.6406C79.483 58.7931 79.9896 58.1302 80.643 57.652C81.2964 57.169 82.0635 56.9276 82.9441 56.9276C83.5739 56.9276 84.1184 57.0483 84.5777 57.2898C85.0417 57.5265 85.4299 57.8414 85.7424 58.2344C86.0549 58.6274 86.2964 59.0582 86.4669 59.527H86.5663V57.0909H87.4044V68.2557C87.4044 69.1648 87.2244 69.92 86.8646 70.5213C86.5095 71.1226 86.01 71.5724 85.366 71.8707C84.7268 72.169 83.9811 72.3182 83.1288 72.3182ZM83.0152 67.1406C83.7443 67.1406 84.3717 66.956 84.8973 66.5866C85.4276 66.2126 85.8348 65.6823 86.1189 64.9957C86.4077 64.3045 86.5521 63.4853 86.5521 62.5384C86.5521 61.6198 86.4124 60.7983 86.1331 60.0739C85.8537 59.3494 85.4489 58.7789 84.9186 58.3622C84.3883 57.9455 83.7538 57.7372 83.0152 57.7372C82.2623 57.7372 81.6207 57.9503 81.0904 58.3764C80.5601 58.7978 80.1529 59.3707 79.8689 60.0952C79.5895 60.8196 79.4498 61.634 79.4498 62.5384C79.4498 63.4474 79.5919 64.2476 79.876 64.9389C80.16 65.6255 80.5672 66.1652 81.0975 66.5582C81.6278 66.9465 82.2671 67.1406 83.0152 67.1406ZM99.9039 68.2273C98.919 68.2273 98.062 67.9834 97.3328 67.4957C96.6037 67.008 96.0402 66.3404 95.6425 65.4929C95.2448 64.6454 95.0459 63.6795 95.0459 62.5952C95.0459 61.5062 95.2448 60.5355 95.6425 59.6832C96.045 58.831 96.5966 58.1586 97.2973 57.6662C97.9981 57.1738 98.7983 56.9276 99.6979 56.9276C100.309 56.9276 100.886 57.0507 101.431 57.2969C101.98 57.5384 102.463 57.8887 102.88 58.348C103.301 58.8073 103.63 59.3613 103.867 60.0099C104.108 60.6586 104.229 61.3878 104.229 62.1974V62.7372L95.5928 62.7372V61.9489L103.363 61.9489C103.363 61.1581 103.202 60.4455 102.88 59.8111C102.558 59.1766 102.12 58.6723 101.566 58.2983C101.012 57.9242 100.389 57.7372 99.6979 57.7372C98.9735 57.7372 98.3272 57.9408 97.759 58.348C97.1955 58.7505 96.7481 59.295 96.4167 59.9815C96.0899 60.6681 95.9195 61.4351 95.9053 62.2827V62.6378C95.9053 63.5469 96.0639 64.3636 96.3811 65.0881C96.7031 65.8078 97.1624 66.3783 97.759 66.7997C98.3556 67.2164 99.0705 67.4247 99.9039 67.4247C100.5 67.4247 101.009 67.3253 101.431 67.1264C101.857 66.9228 102.205 66.6766 102.475 66.3878C102.745 66.099 102.948 65.8196 103.086 65.5497L103.874 65.8693C103.708 66.2339 103.45 66.5985 103.1 66.9631C102.754 67.3229 102.314 67.6236 101.779 67.8651C101.249 68.1065 100.624 68.2273 99.9039 68.2273ZM126.128 68.2273C125.2 68.2273 124.383 67.9834 123.678 67.4957C122.972 67.0033 122.421 66.331 122.023 65.4787C121.63 64.6264 121.433 63.6605 121.433 62.581C121.433 61.5014 121.632 60.5355 122.03 59.6832C122.428 58.831 122.979 58.1586 123.685 57.6662C124.39 57.1738 125.202 56.9276 126.121 56.9276C126.812 56.9276 127.442 57.0696 128.01 57.3537C128.583 57.6378 129.057 58.0331 129.431 58.5398C129.809 59.0464 130.051 59.6335 130.155 60.3011H129.274C129.132 59.5625 128.777 58.9517 128.209 58.4687C127.646 57.9811 126.952 57.7372 126.128 57.7372C125.389 57.7372 124.731 57.9455 124.154 58.3622C123.576 58.7741 123.121 59.3447 122.79 60.0739C122.459 60.7983 122.293 61.6293 122.293 62.5668C122.293 63.4901 122.454 64.3187 122.776 65.0526C123.098 65.7817 123.548 66.3594 124.125 66.7855C124.703 67.2116 125.37 67.4247 126.128 67.4247C126.663 67.4247 127.151 67.3182 127.591 67.1051C128.036 66.892 128.408 66.589 128.706 66.196C129.004 65.803 129.201 65.3437 129.296 64.8182H130.176C130.072 65.4905 129.835 66.0824 129.466 66.5937C129.097 67.1051 128.626 67.5052 128.053 67.794C127.48 68.0829 126.838 68.2273 126.128 68.2273ZM138.597 53.4545V68H137.731V53.4545H138.597ZM150.839 68.2273C149.94 68.2273 149.14 67.9858 148.439 67.5028C147.738 67.0152 147.186 66.3452 146.784 65.4929C146.382 64.6406 146.18 63.67 146.18 62.581C146.18 61.4872 146.382 60.5166 146.784 59.669C147.186 58.8168 147.738 58.1468 148.439 57.6591C149.14 57.1714 149.94 56.9276 150.839 56.9276C151.739 56.9276 152.539 57.1714 153.24 57.6591C153.941 58.1468 154.492 58.8168 154.895 59.669C155.297 60.5213 155.498 61.492 155.498 62.581C155.498 63.67 155.297 64.6406 154.895 65.4929C154.492 66.3452 153.941 67.0152 153.24 67.5028C152.539 67.9858 151.739 68.2273 150.839 68.2273ZM150.839 67.4247C151.602 67.4247 152.267 67.2093 152.835 66.7784C153.408 66.3475 153.851 65.7652 154.163 65.0312C154.48 64.2973 154.639 63.4806 154.639 62.581C154.639 61.6813 154.48 60.867 154.163 60.1378C153.846 59.4039 153.403 58.8215 152.835 58.3906C152.267 57.955 151.602 57.7372 150.839 57.7372C150.077 57.7372 149.412 57.955 148.844 58.3906C148.275 58.8215 147.833 59.4039 147.516 60.1378C147.198 60.867 147.04 61.6813 147.04 62.581C147.04 63.4806 147.196 64.2973 147.508 65.0312C147.826 65.7652 148.268 66.3475 148.837 66.7784C149.409 67.2093 150.077 67.4247 150.839 67.4247ZM166.94 57.0909V57.8651H162.174V57.0909H166.94ZM163.786 54.4773H164.646V65.4219C164.646 65.867 164.731 66.2315 164.901 66.5156C165.077 66.795 165.304 67.0033 165.583 67.1406C165.867 67.2732 166.17 67.3395 166.492 67.3395C166.649 67.3395 166.783 67.3277 166.897 67.304C167.015 67.2803 167.127 67.2495 167.231 67.2116L167.444 68C167.311 68.0473 167.165 68.0876 167.004 68.1207C166.843 68.1586 166.653 68.1776 166.435 68.1776C165.981 68.1776 165.55 68.0758 165.143 67.8722C164.74 67.6686 164.414 67.3726 164.163 66.9844C163.912 66.5961 163.786 66.1274 163.786 65.5781V54.4773ZM175.854 60.9261V68H174.988V53.4545H175.854V58.8168H175.94C176.195 58.2486 176.602 57.7964 177.161 57.4602C177.725 57.1193 178.399 56.9489 179.185 56.9489C179.919 56.9489 180.566 57.1051 181.124 57.4176C181.683 57.7254 182.119 58.1681 182.431 58.7457C182.748 59.3187 182.907 60.0052 182.907 60.8054V68H182.048V60.8409C182.048 59.9081 181.771 59.16 181.217 58.5966C180.663 58.0331 179.931 57.7514 179.022 57.7514C178.411 57.7514 177.867 57.884 177.388 58.1491C176.91 58.4143 176.534 58.786 176.259 59.2642C175.989 59.7377 175.854 60.2917 175.854 60.9261ZM191.134 68V57.0909H191.994V68H191.134ZM191.568 55.1591C191.378 55.1591 191.213 55.0928 191.07 54.9602C190.933 54.8277 190.865 54.6667 190.865 54.4773C190.865 54.2879 190.933 54.1269 191.07 53.9943C191.208 53.8617 191.374 53.7955 191.568 53.7955C191.757 53.7955 191.92 53.8617 192.058 53.9943C192.2 54.1269 192.271 54.2879 192.271 54.4773C192.271 54.6667 192.202 54.8277 192.065 54.9602C191.927 55.0928 191.762 55.1591 191.568 55.1591ZM201.09 60.9261V68H200.223V57.0909H201.068V58.8168H201.153C201.409 58.2533 201.819 57.8011 202.382 57.4602C202.946 57.1193 203.616 56.9489 204.392 56.9489C205.126 56.9489 205.77 57.1051 206.324 57.4176C206.883 57.7301 207.318 58.1752 207.631 58.7528C207.948 59.3258 208.107 60.0099 208.107 60.8054V68H207.24V60.8409C207.24 59.9129 206.963 59.1671 206.409 58.6037C205.86 58.0355 205.133 57.7514 204.229 57.7514C203.623 57.7514 203.083 57.884 202.609 58.1491C202.136 58.4143 201.764 58.786 201.494 59.2642C201.224 59.7377 201.09 60.2917 201.09 60.9261ZM220.242 72.3182C219.565 72.3182 218.957 72.2282 218.417 72.0483C217.877 71.8731 217.418 71.6222 217.039 71.2955C216.665 70.9688 216.378 70.5805 216.18 70.1307L216.904 69.7045C217.065 70.0549 217.295 70.3674 217.593 70.642C217.891 70.9167 218.261 71.1321 218.701 71.2884C219.146 71.4446 219.66 71.5227 220.242 71.5227C221.293 71.5227 222.124 71.2505 222.735 70.706C223.351 70.1662 223.658 69.3376 223.658 68.2202V65.5071H223.573C223.407 65.9806 223.161 66.402 222.834 66.7713C222.512 67.1359 222.117 67.4223 221.648 67.6307C221.18 67.839 220.647 67.9432 220.05 67.9432C219.189 67.9432 218.431 67.7206 217.778 67.2756C217.124 66.8305 216.615 66.2055 216.251 65.4006C215.886 64.5909 215.704 63.6392 215.704 62.5455C215.704 61.4517 215.881 60.4834 216.236 59.6406C216.596 58.7931 217.103 58.1302 217.756 57.652C218.41 57.169 219.177 56.9276 220.057 56.9276C220.687 56.9276 221.232 57.0483 221.691 57.2898C222.155 57.5265 222.543 57.8414 222.856 58.2344C223.168 58.6274 223.41 59.0582 223.58 59.527H223.68V57.0909H224.518V68.2557C224.518 69.1648 224.338 69.92 223.978 70.5213C223.623 71.1226 223.123 71.5724 222.479 71.8707C221.84 72.169 221.094 72.3182 220.242 72.3182ZM220.128 67.1406C220.858 67.1406 221.485 66.956 222.011 66.5866C222.541 66.2126 222.948 65.6823 223.232 64.9957C223.521 64.3045 223.665 63.4853 223.665 62.5384C223.665 61.6198 223.526 60.7983 223.246 60.0739C222.967 59.3494 222.562 58.7789 222.032 58.3622C221.502 57.9455 220.867 57.7372 220.128 57.7372C219.376 57.7372 218.734 57.9503 218.204 58.3764C217.673 58.7978 217.266 59.3707 216.982 60.0952C216.703 60.8196 216.563 61.634 216.563 62.5384C216.563 63.4474 216.705 64.2476 216.989 64.9389C217.273 65.6255 217.681 66.1652 218.211 66.5582C218.741 66.9465 219.38 67.1406 220.128 67.1406ZM249.92 59.4418L249.117 59.6548C248.989 59.2571 248.807 58.9138 248.57 58.625C248.334 58.3362 248.035 58.1136 247.675 57.9574C247.32 57.7964 246.894 57.7159 246.397 57.7159C245.597 57.7159 244.941 57.9148 244.43 58.3125C243.923 58.7102 243.67 59.2287 243.67 59.8679C243.67 60.3887 243.843 60.8196 244.188 61.1605C244.534 61.4967 245.062 61.7524 245.772 61.9276L247.448 62.3466C248.31 62.5597 248.959 62.9053 249.394 63.3835C249.83 63.857 250.048 64.4465 250.048 65.152C250.048 65.7533 249.884 66.286 249.557 66.75C249.231 67.214 248.779 67.5762 248.201 67.8366C247.628 68.0971 246.96 68.2273 246.198 68.2273C245.18 68.2273 244.344 67.9905 243.691 67.517C243.038 67.0388 242.619 66.3546 242.434 65.4645L243.265 65.2514C243.421 65.9616 243.745 66.5038 244.238 66.8778C244.735 67.2472 245.386 67.4318 246.191 67.4318C247.081 67.4318 247.798 67.2211 248.343 66.7997C248.892 66.3783 249.167 65.8385 249.167 65.1804C249.167 64.6785 249.006 64.2547 248.684 63.9091C248.362 63.5634 247.874 63.3101 247.221 63.1491L245.481 62.723C244.591 62.5052 243.923 62.1572 243.478 61.679C243.033 61.196 242.81 60.6018 242.81 59.8963C242.81 59.3092 242.964 58.7931 243.272 58.348C243.58 57.9029 244.004 57.5549 244.543 57.304C245.083 57.053 245.701 56.9276 246.397 56.9276C247.32 56.9276 248.073 57.1454 248.655 57.581C249.238 58.0166 249.659 58.6368 249.92 59.4418ZM261.503 57.0909V57.8651H256.737V57.0909H261.503ZM258.35 54.4773H259.209V65.4219C259.209 65.867 259.294 66.2315 259.465 66.5156C259.64 66.795 259.867 67.0033 260.146 67.1406C260.431 67.2732 260.734 67.3395 261.056 67.3395C261.212 67.3395 261.347 67.3277 261.46 67.304C261.579 67.2803 261.69 67.2495 261.794 67.2116L262.007 68C261.875 68.0473 261.728 68.0876 261.567 68.1207C261.406 68.1586 261.217 68.1776 260.999 68.1776C260.544 68.1776 260.113 68.0758 259.706 67.8722C259.304 67.6686 258.977 67.3726 258.726 66.9844C258.475 66.5961 258.35 66.1274 258.35 65.5781V54.4773ZM273.255 68.2273C272.355 68.2273 271.555 67.9858 270.854 67.5028C270.154 67.0152 269.602 66.3452 269.2 65.4929C268.797 64.6406 268.596 63.67 268.596 62.581C268.596 61.4872 268.797 60.5166 269.2 59.669C269.602 58.8168 270.154 58.1468 270.854 57.6591C271.555 57.1714 272.355 56.9276 273.255 56.9276C274.155 56.9276 274.955 57.1714 275.656 57.6591C276.356 58.1468 276.908 58.8168 277.31 59.669C277.713 60.5213 277.914 61.492 277.914 62.581C277.914 63.67 277.713 64.6406 277.31 65.4929C276.908 66.3452 276.356 67.0152 275.656 67.5028C274.955 67.9858 274.155 68.2273 273.255 68.2273ZM273.255 67.4247C274.017 67.4247 274.683 67.2093 275.251 66.7784C275.824 66.3475 276.266 65.7652 276.579 65.0312C276.896 64.2973 277.055 63.4806 277.055 62.581C277.055 61.6813 276.896 60.867 276.579 60.1378C276.262 59.4039 275.819 58.8215 275.251 58.3906C274.683 57.955 274.017 57.7372 273.255 57.7372C272.493 57.7372 271.827 57.955 271.259 58.3906C270.691 58.8215 270.248 59.4039 269.931 60.1378C269.614 60.867 269.455 61.6813 269.455 62.581C269.455 63.4806 269.612 64.2973 269.924 65.0312C270.241 65.7652 270.684 66.3475 271.252 66.7784C271.825 67.2093 272.493 67.4247 273.255 67.4247ZM285.499 68V57.0909H286.344V58.7955H286.422C286.659 58.2367 287.059 57.7893 287.622 57.4531C288.186 57.1122 288.827 56.9418 289.547 56.9418C289.623 56.9418 289.699 56.9418 289.774 56.9418C289.85 56.9418 289.921 56.9441 289.987 56.9489V57.8224C289.931 57.8177 289.862 57.8106 289.782 57.8011C289.706 57.7869 289.611 57.7798 289.497 57.7798C288.891 57.7798 288.352 57.91 287.878 58.1705C287.409 58.4309 287.04 58.7907 286.77 59.25C286.5 59.7045 286.365 60.2254 286.365 60.8125V68H285.499ZM300.837 68.2273C299.853 68.2273 298.996 67.9834 298.266 67.4957C297.537 67.008 296.974 66.3404 296.576 65.4929C296.178 64.6454 295.979 63.6795 295.979 62.5952C295.979 61.5062 296.178 60.5355 296.576 59.6832C296.979 58.831 297.53 58.1586 298.231 57.6662C298.932 57.1738 299.732 56.9276 300.631 56.9276C301.242 56.9276 301.82 57.0507 302.364 57.2969C302.914 57.5384 303.397 57.8887 303.813 58.348C304.235 58.8073 304.564 59.3613 304.801 60.0099C305.042 60.6586 305.163 61.3878 305.163 62.1974V62.7372L296.526 62.7372V61.9489H304.296C304.296 61.1581 304.135 60.4455 303.813 59.8111C303.491 59.1766 303.053 58.6723 302.499 58.2983C301.945 57.9242 301.323 57.7372 300.631 57.7372C299.907 57.7372 299.261 57.9408 298.693 58.348C298.129 58.7505 297.682 59.295 297.35 59.9815C297.024 60.6681 296.853 61.4351 296.839 62.2827V62.6378C296.839 63.5469 296.997 64.3636 297.315 65.0881C297.637 65.8078 298.096 66.3783 298.693 66.7997C299.289 67.2164 300.004 67.4247 300.837 67.4247C301.434 67.4247 301.943 67.3253 302.364 67.1264C302.791 66.9228 303.139 66.6766 303.408 66.3878C303.678 66.099 303.882 65.8196 304.019 65.5497L304.808 65.8693C304.642 66.2339 304.384 66.5985 304.033 66.9631C303.688 67.3229 303.247 67.6236 302.712 67.8651C302.182 68.1065 301.557 68.2273 300.837 68.2273Z" fill="black"/>
<path d="M34.504 6.272V4.48H46.92V6.272L43.4 6.72C42.7173 6.80533 42.312 6.99733 42.184 7.296C42.056 7.552 41.992 8.40533 41.992 9.856V33.216C41.992 38.336 40.904 42.1973 38.728 44.8C36.5947 47.36 33.3093 48.64 28.872 48.64C23.7093 48.64 19.5493 47.232 16.392 44.416C13.2347 41.6 11.656 37.5467 11.656 32.256V9.856C11.656 8.40533 11.592 7.552 11.464 7.296C11.336 6.99733 10.9307 6.80533 10.248 6.72L6.728 6.272V4.48H24.264V6.272L20.744 6.72C20.0613 6.80533 19.656 6.99733 19.528 7.296C19.4 7.552 19.336 8.40533 19.336 9.856V32.704C19.336 37.4827 20.2107 40.9387 21.96 43.072C23.7093 45.2053 26.2053 46.272 29.448 46.272C32.6053 46.272 35.0587 45.2693 36.808 43.264C38.5573 41.216 39.432 37.9093 39.432 33.344V9.856C39.432 8.40533 39.368 7.552 39.24 7.296C39.112 6.99733 38.7067 6.80533 38.024 6.72L34.504 6.272ZM90.1805 46.208V48H72.9645V46.208L76.4845 45.76C77.1672 45.6747 77.5725 45.504 77.7005 45.248C77.8285 44.9493 77.8925 44.0747 77.8925 42.624V26.496C77.8925 23.552 77.4445 21.4187 76.5485 20.096C75.6952 18.7307 74.4152 18.048 72.7085 18.048C71.9832 18.048 71.1298 18.24 70.1485 18.624C69.2098 18.9653 68.2498 19.6053 67.2685 20.544C66.3298 21.4827 65.4978 22.8693 64.7725 24.704V42.624C64.7725 44.0747 64.8365 44.9493 64.9645 45.248C65.0925 45.504 65.4978 45.6747 66.1805 45.76L69.7005 46.208V48H52.4845V46.208L56.0045 45.76C56.6872 45.6747 57.0925 45.504 57.2205 45.248C57.3485 44.9493 57.4125 44.0747 57.4125 42.624V20.928C57.4125 19.4773 57.3485 18.624 57.2205 18.368C57.0925 18.0693 56.6872 17.8773 56.0045 17.792L52.4845 17.344V15.552H64.3885V21.184C65.6258 19.008 67.2045 17.4293 69.1245 16.448C71.0872 15.424 73.0498 14.912 75.0125 14.912C78.1698 14.912 80.6658 15.9147 82.5005 17.92C84.3352 19.9253 85.2525 22.7627 85.2525 26.432V42.624C85.2525 44.0747 85.3165 44.9493 85.4445 45.248C85.5725 45.504 85.9778 45.6747 86.6605 45.76L90.1805 46.208ZM95.1115 2.432V0.639999H107.4V31.68L118.664 20.928C120.157 19.52 120.946 18.6667 121.032 18.368C121.16 18.0693 120.861 17.8773 120.136 17.792L116.616 17.344V15.552H129.736V17.344L126.216 17.792C125.832 17.8347 125.512 17.92 125.256 18.048C125 18.176 124.637 18.4533 124.168 18.88C123.698 19.264 122.952 19.9467 121.928 20.928L115.784 26.816L124.872 42.624C125.469 43.6053 125.917 44.3093 126.216 44.736C126.514 45.12 126.792 45.376 127.048 45.504C127.346 45.5893 127.709 45.6747 128.136 45.76L131.656 46.208V48H119.432L110.536 31.808L107.4 34.816V42.624C107.4 44.0747 107.464 44.9493 107.592 45.248C107.72 45.504 108.125 45.6747 108.808 45.76L112.328 46.208V48H95.1115V46.208L98.6315 45.76C99.3142 45.6747 99.7195 45.504 99.8475 45.248C99.9755 44.9493 100.04 44.0747 100.04 42.624V6.016C100.04 4.56533 99.9755 3.712 99.8475 3.456C99.7195 3.15733 99.3142 2.96533 98.6315 2.88L95.1115 2.432ZM174.081 46.208V48H156.865V46.208L160.385 45.76C161.067 45.6747 161.473 45.504 161.601 45.248C161.729 44.9493 161.793 44.0747 161.793 42.624V26.496C161.793 23.552 161.345 21.4187 160.449 20.096C159.595 18.7307 158.315 18.048 156.609 18.048C155.883 18.048 155.03 18.24 154.049 18.624C153.11 18.9653 152.15 19.6053 151.169 20.544C150.23 21.4827 149.398 22.8693 148.673 24.704V42.624C148.673 44.0747 148.737 44.9493 148.865 45.248C148.993 45.504 149.398 45.6747 150.081 45.76L153.601 46.208V48H136.385V46.208L139.905 45.76C140.587 45.6747 140.993 45.504 141.121 45.248C141.249 44.9493 141.313 44.0747 141.313 42.624V20.928C141.313 19.4773 141.249 18.624 141.121 18.368C140.993 18.0693 140.587 17.8773 139.905 17.792L136.385 17.344V15.552H148.289V21.184C149.526 19.008 151.105 17.4293 153.025 16.448C154.987 15.424 156.95 14.912 158.913 14.912C162.07 14.912 164.566 15.9147 166.401 17.92C168.235 19.9253 169.153 22.7627 169.153 26.432V42.624C169.153 44.0747 169.217 44.9493 169.345 45.248C169.473 45.504 169.878 45.6747 170.561 45.76L174.081 46.208ZM210.628 31.104V32.384C210.628 37.2907 209.348 41.2373 206.788 44.224C204.27 47.168 200.665 48.64 195.972 48.64C191.278 48.64 187.652 47.168 185.092 44.224C182.574 41.2373 181.316 37.2907 181.316 32.384V31.104C181.316 26.1973 182.574 22.272 185.092 19.328C187.652 16.384 191.278 14.912 195.972 14.912C200.665 14.912 204.27 16.384 206.788 19.328C209.348 22.272 210.628 26.1973 210.628 31.104ZM202.756 29.824C202.756 25.2587 202.18 22.016 201.028 20.096C199.876 18.1333 198.19 17.152 195.972 17.152C193.796 17.152 192.11 18.1333 190.916 20.096C189.764 22.016 189.188 25.2587 189.188 29.824V33.664C189.188 38.1867 189.764 41.4507 190.916 43.456C192.11 45.4187 193.796 46.4 195.972 46.4C198.19 46.4 199.876 45.4187 201.028 43.456C202.18 41.4507 202.756 38.1867 202.756 33.664V29.824ZM261.26 20.928L254.284 48H248.46L240.78 22.272L233.036 48H227.724L220.812 20.928C220.556 19.9467 220.343 19.264 220.172 18.88C220.044 18.4533 219.873 18.176 219.66 18.048C219.447 17.92 219.127 17.8347 218.7 17.792L215.18 17.344V15.552H232.204V17.344L228.684 17.792C228.001 17.8773 227.617 18.0693 227.532 18.368C227.447 18.624 227.596 19.4773 227.98 20.928L232.972 40.192L240.332 15.552H245.964L253.58 41.28L258.764 20.928C259.148 19.4773 259.297 18.624 259.212 18.368C259.127 18.0693 258.743 17.8773 258.06 17.792L254.54 17.344V15.552H266.892V17.344L263.372 17.792C262.945 17.8347 262.625 17.92 262.412 18.048C262.199 18.176 262.007 18.4533 261.836 18.88C261.708 19.264 261.516 19.9467 261.26 20.928ZM308.931 46.208V48H291.715V46.208L295.235 45.76C295.917 45.6747 296.323 45.504 296.451 45.248C296.579 44.9493 296.643 44.0747 296.643 42.624V26.496C296.643 23.552 296.195 21.4187 295.299 20.096C294.445 18.7307 293.165 18.048 291.459 18.048C290.733 18.048 289.88 18.24 288.899 18.624C287.96 18.9653 287 19.6053 286.019 20.544C285.08 21.4827 284.248 22.8693 283.523 24.704V42.624C283.523 44.0747 283.587 44.9493 283.715 45.248C283.843 45.504 284.248 45.6747 284.931 45.76L288.451 46.208V48H271.235V46.208L274.755 45.76C275.437 45.6747 275.843 45.504 275.971 45.248C276.099 44.9493 276.163 44.0747 276.163 42.624V20.928C276.163 19.4773 276.099 18.624 275.971 18.368C275.843 18.0693 275.437 17.8773 274.755 17.792L271.235 17.344V15.552H283.139V21.184C284.376 19.008 285.955 17.4293 287.875 16.448C289.837 15.424 291.8 14.912 293.763 14.912C296.92 14.912 299.416 15.9147 301.251 17.92C303.085 19.9253 304.003 22.7627 304.003 26.432V42.624C304.003 44.0747 304.067 44.9493 304.195 45.248C304.323 45.504 304.728 45.6747 305.411 45.76L308.931 46.208Z" fill="black"/>
</svg>
